<svg xmlns="http://www.w3.org/2000/svg"><style>:root svg:not(:target){display:none}</style><svg fill="none" id="5_corners_logo" viewBox="0 0 21 21"><path fill-rule="evenodd" clip-rule="evenodd" d="m8.44 17.447-.028-.059L0 12l2.996-2.214L5.473 0 8.47 2.214l9.996-.641-1.152 3.553L21 14.534h-3.716l-.029.03L9.564 21 8.44 17.447Z" fill="#000"></path><path fill-rule="evenodd" clip-rule="evenodd" d="M8.441 17.355v.058l5.82-2.912 1.094.029h1.93l-.115-.874-.807-5.622.95-2.883h-.028l-.087-.03-6.28-1.106L8.47 2.209v.03l-.749 1.397-2.276 4.37-2.333 1.718-.115.087 4.522 4.69.922 2.854Z" fill="#fff"></path></svg><svg fill="none" id="anchor_top_icon" viewBox="0 0 40 40"><path d="M19.25 30a.75.75 0 0 0 1.5 0h-1.5Zm1.28-20.53a.75.75 0 0 0-1.06 0l-4.773 4.773a.75.75 0 0 0 1.06 1.06L20 11.061l4.243 4.242a.75.75 0 0 0 1.06-1.06L20.53 9.47ZM20.75 30V10h-1.5v20h1.5Z" fill="#C8C8C8"></path><rect x=".5" y=".5" width="39" height="39" rx="19.5" stroke="#C8C8C8"></rect></svg><svg fill="none" id="anchor_top_icon_active" viewBox="0 0 40 40"><path d="M19.25 30a.75.75 0 0 0 1.5 0h-1.5Zm1.28-20.53a.75.75 0 0 0-1.06 0l-4.773 4.773a.75.75 0 0 0 1.06 1.06L20 11.061l4.243 4.242a.75.75 0 0 0 1.06-1.06L20.53 9.47ZM20.75 30V10h-1.5v20h1.5Z" fill="#6E6E6E"></path><rect x=".5" y=".5" width="39" height="39" rx="19.5" stroke="#6E6E6E"></rect></svg><svg fill="none" id="cart_icon" viewBox="0 0 20 20"><path d="M17.418 6.34v-.5a.5.5 0 0 0-.494.576l.494-.076Zm1.415 9.099.494-.077-.494.077Zm-2.017 2.329v.5-.5Zm-13.63 0v-.5.5Zm-2.02-2.33-.493-.076.494.077ZM2.583 6.34l.494.076-.494-.076Zm2.02-1.715v.5-.5Zm10.797 0v.5-.5Zm2.02 1.715v.5a.5.5 0 0 0 .494-.577l-.494.077Zm-.495.076 1.415 9.1.988-.154-1.415-9.1-.988.154Zm1.415 9.1a1.5 1.5 0 0 1-.04.646l.96.277c.101-.35.124-.717.068-1.077l-.988.153Zm-.04.646c-.061.21-.167.406-.312.573l.756.654c.239-.276.415-.6.516-.95l-.96-.277Zm-.312.573c-.144.166-.324.3-.526.393l.415.91c.332-.152.628-.373.867-.649l-.756-.654Zm-.526.393a1.56 1.56 0 0 1-.646.14l.001 1a2.56 2.56 0 0 0 1.06-.23l-.415-.91Zm-.645.14H3.186v1h13.63v-1Zm-13.63 0c-.223 0-.444-.048-.646-.14l-.414.91c.333.152.695.23 1.06.23v-1Zm-.646-.14a1.542 1.542 0 0 1-.527-.393l-.755.655c.239.276.535.497.868.648l.414-.91Zm-.527-.393a1.515 1.515 0 0 1-.311-.572l-.96.277c.1.35.277.674.516.95l.755-.655Zm-.311-.572a1.502 1.502 0 0 1-.041-.648l-.989-.153c-.055.36-.032.728.07 1.078l.96-.277Zm-.041-.648 1.415-9.099-.988-.153-1.415 9.099.988.153Zm1.415-9.099c.055-.358.239-.685.519-.923l-.647-.762a2.517 2.517 0 0 0-.86 1.532l.988.153Zm.519-.923c.28-.237.637-.368 1.007-.368v-1c-.606 0-1.193.214-1.654.606l.647.762Zm1.007-.368H15.4v-1H4.602v1Zm10.798 0c.37 0 .727.131 1.007.369l.647-.763a2.556 2.556 0 0 0-1.654-.606v1Zm1.007.369c.28.237.463.564.518.922l.988-.153a2.516 2.516 0 0 0-.86-1.532l-.646.763Zm1.012.346v1-1ZM7.352 4.699c.247-1.662 1.545-2.486 2.895-2.485 1.352.002 2.683.835 2.975 2.498l.985-.173c-.389-2.211-2.197-3.322-3.959-3.325-1.765-.002-3.554 1.11-3.885 3.338l.989.147Z" fill="#000"></path></svg><svg fill="none" id="favorites_icon" viewBox="0 0 20 20"><path d="m16.909 10.822-6.901 6.892-6.902-6.892a4.674 4.674 0 0 1-.956-5.297c.27-.58.657-1.097 1.134-1.52a4.564 4.564 0 0 1 5.312-.538 4.613 4.613 0 0 1 1.412 1.262c.38-.51.861-.936 1.412-1.25a4.573 4.573 0 0 1 5.297.549 4.671 4.671 0 0 1 .192 6.8" stroke="#000" stroke-linecap="round" stroke-linejoin="round"></path></svg><svg fill="none" id="logo" viewBox="0 0 100 22"><path d="M5.222 18.707c0 .656.068 1.131.206 1.426.137.294.39.498.755.61.367.091.962.137 1.787.137h3.744c1.306 0 2.348-.396 3.126-1.189.779-.792 1.294-1.89 1.546-3.293 0-.068.058-.09.172-.068.137 0 .206.034.206.102-.206 1.879-.31 3.43-.31 4.651 0 .181-.033.317-.102.408-.069.068-.206.102-.412.102H.069c-.046 0-.069-.068-.069-.204 0-.136.023-.204.069-.204.87 0 1.5-.056 1.89-.17.411-.113.686-.328.824-.645.137-.34.206-.848.206-1.527V3.123c0-.679-.069-1.177-.206-1.493-.138-.317-.413-.532-.825-.645C1.568.849.94.78.068.78.024.78 0 .713 0 .577 0 .441.023.373.069.373l1.683.034c.962.046 1.74.068 2.336.068.641 0 1.443-.022 2.405-.068L8.142.373c.068 0 .103.068.103.204 0 .136-.035.204-.103.204-.848 0-1.478.068-1.89.204-.39.113-.664.34-.824.679-.138.316-.206.814-.206 1.493v15.55ZM32.21 22c-2.13 0-4.03-.487-5.702-1.46a10.484 10.484 0 0 1-3.848-4.006c-.893-1.698-1.34-3.542-1.34-5.534 0-2.331.596-4.323 1.787-5.975a11.142 11.142 0 0 1 4.569-3.769C29.554.42 31.466 0 33.413 0c2.175 0 4.088.51 5.736 1.528 1.65.996 2.909 2.32 3.78 3.972a10.904 10.904 0 0 1 1.339 5.262c0 2.06-.55 3.95-1.649 5.67-1.1 1.72-2.576 3.078-4.431 4.074C36.355 21.502 34.362 22 32.21 22Zm1.203-.713c1.557 0 2.954-.373 4.19-1.12 1.26-.747 2.245-1.845 2.955-3.294.733-1.448 1.1-3.168 1.1-5.16 0-2.128-.402-4.018-1.203-5.67-.802-1.652-1.935-2.942-3.401-3.87C35.61 1.245 33.916.78 31.97.78c-2.52 0-4.49.803-5.909 2.41-1.42 1.607-2.13 3.814-2.13 6.62 0 2.128.4 4.075 1.203 5.84.801 1.743 1.923 3.124 3.366 4.142 1.443.996 3.08 1.494 4.913 1.494ZM62.305 22c-2.496 0-4.672-.475-6.527-1.426-1.855-.95-3.275-2.24-4.26-3.87-.962-1.63-1.443-3.452-1.443-5.466 0-2.196.561-4.142 1.684-5.84 1.145-1.697 2.702-3.021 4.672-3.972C58.423.476 60.667 0 63.164 0c1.122 0 2.187.113 3.195.34 1.03.203 1.866.497 2.507.882.183.113.287.215.31.306.045.068.08.226.102.475l.413 3.803c0 .067-.069.113-.206.135-.115 0-.183-.034-.207-.101-.503-1.63-1.42-2.886-2.748-3.769-1.305-.883-2.92-1.324-4.843-1.324-2.886 0-5.119.826-6.7 2.478-1.58 1.653-2.37 3.916-2.37 6.79 0 2.196.447 4.165 1.34 5.908.916 1.72 2.176 3.067 3.779 4.04 1.603.973 3.401 1.46 5.393 1.46 1.168 0 2.073-.102 2.714-.306.641-.203 1.111-.6 1.409-1.188.297-.588.446-1.46.446-2.614 0-1.177-.08-1.992-.24-2.445-.138-.475-.47-.792-.996-.95-.504-.159-1.386-.238-2.646-.238-.137 0-.206-.09-.206-.271 0-.068.012-.125.035-.17.045-.068.091-.102.137-.102 1.787.113 3.23.17 4.329.17 1.076 0 2.198-.034 3.366-.102.046 0 .08.034.103.102.046.045.069.09.069.135 0 .159-.057.238-.172.238-.55-.023-.939.057-1.168.238-.229.158-.378.498-.447 1.018-.068.52-.102 1.426-.102 2.716 0 1.019.034 1.743.102 2.173.092.43.138.702.138.815 0 .136-.023.226-.069.272-.046.045-.149.09-.309.135-2.771.634-5.21.951-7.317.951ZM87.942 22c-2.13 0-4.03-.487-5.702-1.46a10.482 10.482 0 0 1-3.848-4.006c-.893-1.698-1.34-3.542-1.34-5.534 0-2.331.596-4.323 1.787-5.975a11.14 11.14 0 0 1 4.569-3.769C85.286.42 87.198 0 89.145 0c2.175 0 4.088.51 5.737 1.528 1.648.996 2.908 2.32 3.778 3.972a10.905 10.905 0 0 1 1.34 5.262c0 2.06-.55 3.95-1.649 5.67-1.1 1.72-2.576 3.078-4.431 4.074-1.833.996-3.825 1.494-5.978 1.494Zm1.203-.713c1.557 0 2.954-.373 4.19-1.12 1.26-.747 2.245-1.845 2.955-3.294.733-1.448 1.1-3.168 1.1-5.16 0-2.128-.402-4.018-1.203-5.67-.802-1.652-1.935-2.942-3.401-3.87C91.343 1.245 89.648.78 87.702.78c-2.52 0-4.489.803-5.909 2.41-1.42 1.607-2.13 3.814-2.13 6.62 0 2.128.401 4.075 1.203 5.84.801 1.743 1.923 3.124 3.366 4.142 1.443.996 3.08 1.494 4.913 1.494Z" fill="#000"></path></svg><svg fill="none" id="minus_icon" viewBox="0 0 14 2"><path d="M1 1h12" stroke="#000" stroke-width="2" stroke-linecap="round" stroke-linejoin="round"></path></svg><svg fill="none" id="plus_icon" viewBox="0 0 14 14"><path d="M1 7h12M7 1v12" stroke="#000" stroke-width="2" stroke-linecap="round" stroke-linejoin="round"></path></svg><svg fill="none" id="profile_icon" viewBox="0 0 20 20"><path d="M15.806 7.52c0 3.239-2.624 5.806-5.877 5.806-3.253 0-5.877-2.567-5.877-5.806a5.877 5.877 0 1 1 11.754 0Z" stroke="#000"></path><path d="M1.143 19.074c3.822-7.013 13.892-7.013 17.714 0" stroke="#000"></path></svg><svg fill="none" id="search_icon" viewBox="0 0 20 20"><path d="m14.603 14.603 3.683 3.683" stroke="#000" stroke-linejoin="round"></path><path d="M16.444 9.08a7.365 7.365 0 1 1-14.73 0 7.365 7.365 0 0 1 14.73 0Z" stroke="#000"></path></svg><svg style="enable-background:new 0 0 512 512" viewBox="0 0 512 512" id="success_icon"><path style="fill:#41ad49" d="M434.8 49 174.2 309.7l-97.4-97.4L0 289.2l174.1 174.1 22.5-22.4 315.1-315.1L434.8 49z"></path></svg></svg>