<svg width="21" height="21" viewBox="0 0 21 21" fill="none" xmlns="http://www.w3.org/2000/svg">
<path fill-rule="evenodd" clip-rule="evenodd" d="M8.44033 17.4466L8.41152 17.3883L0 12L2.99588 9.78641L5.47325 0L8.46914 2.21359L18.465 1.57282L17.3128 5.12621L21 14.534H17.284L17.2551 14.5631L9.56379 21L8.44033 17.4466Z" fill="black"/>
<path fill-rule="evenodd" clip-rule="evenodd" d="M8.44127 17.3549V17.4131L14.2602 14.5005L15.3548 14.5296H17.2561H17.2849L17.1697 13.6558L16.3631 8.03447L17.3137 5.15098H17.2849L17.1985 5.12185L10.9186 4.01505L8.47008 2.20923V2.23835L7.7211 3.63641L5.44539 8.00534L3.11205 9.72379L2.99683 9.81117L7.51946 14.5005L8.44127 17.3549Z" fill="white"/>
</svg>
